<svg width="284" height="112" viewBox="0 0 284 112" fill="none" xmlns="http://www.w3.org/2000/svg">
<path d="M12.8027 15.96L7.4027 27H3.4427L7.4627 6.12H11.4827L9.3227 17.25H9.3827L14.7527 6.12H18.8027L14.7527 27H10.7027L12.8627 15.96H12.8027ZM27.0061 5.94C28.6261 5.94 29.8261 6.34 30.6061 7.14C31.3861 7.94 31.7761 8.94 31.7761 10.14C31.7761 10.58 31.7361 10.97 31.6561 11.31L27.6061 12C27.6261 11.9 27.6361 11.81 27.6361 11.73C27.6561 11.63 27.6661 11.53 27.6661 11.43C27.6661 10.97 27.5661 10.59 27.3661 10.29C27.1661 9.99 26.8861 9.84 26.5261 9.84C26.2461 9.84 26.0161 9.9 25.8361 10.02C25.6561 10.12 25.4961 10.25 25.3561 10.41C25.2361 10.57 25.1361 10.75 25.0561 10.95C24.9961 11.13 24.9561 11.29 24.9361 11.43L22.8661 22.08C22.8461 22.16 22.8361 22.28 22.8361 22.44C22.8361 22.66 22.8961 22.86 23.0161 23.04C23.1561 23.2 23.4361 23.28 23.8561 23.28C24.7161 23.28 25.3161 22.56 25.6561 21.12L29.5861 21.66C29.4661 22.48 29.2561 23.23 28.9561 23.91C28.6761 24.57 28.2961 25.15 27.8161 25.65C27.3361 26.13 26.7461 26.51 26.0461 26.79C25.3661 27.05 24.5561 27.18 23.6161 27.18C22.0161 27.18 20.8061 26.83 19.9861 26.13C19.1661 25.43 18.7561 24.42 18.7561 23.1C18.7561 22.7 18.8061 22.22 18.9061 21.66L20.8861 11.43C21.0461 10.61 21.2761 9.86 21.5761 9.18C21.8761 8.5 22.2661 7.92 22.7461 7.44C23.2261 6.96 23.8161 6.59 24.5161 6.33C25.2161 6.07 26.0461 5.94 27.0061 5.94ZM37.0788 27L40.3488 10.11H38.1888L34.9188 27H30.8388L34.8888 6.12H45.1788L41.1288 27H37.0788ZM56.4075 27L60.4575 6.12H64.5375L60.4875 27H56.4075ZM44.2275 27L48.2775 6.12H52.3575L50.8575 13.77H51.3375C52.1975 13.77 52.9475 13.89 53.5875 14.13C54.2475 14.35 54.7975 14.67 55.2375 15.09C55.6775 15.49 56.0075 15.97 56.2275 16.53C56.4675 17.07 56.5875 17.66 56.5875 18.3C56.5875 19.62 56.4175 20.82 56.0775 21.9C55.7375 22.98 55.2575 23.9 54.6375 24.66C54.0175 25.4 53.2775 25.98 52.4175 26.4C51.5575 26.8 50.6075 27 49.5675 27H44.2275ZM49.8075 23.1C50.1275 23.1 50.4475 23.02 50.7675 22.86C51.1075 22.68 51.3975 22.44 51.6375 22.14C51.8975 21.82 52.1075 21.43 52.2675 20.97C52.4275 20.49 52.5075 19.95 52.5075 19.35C52.5075 18.63 52.3275 18.18 51.9675 18C51.6275 17.8 51.2375 17.7 50.7975 17.7H50.1075L49.0575 23.1H49.8075ZM72.6848 10.02L69.3848 27H65.3048L68.6048 10.02H65.3948L66.1448 6.12H76.6448L75.8948 10.02H72.6848ZM81.8754 22.92H78.8154L77.4054 27H73.0554L81.0654 6.12H86.0454L85.9854 27H81.7254L81.8754 22.92ZM81.1854 15.75L80.1354 19.08H82.0254L82.2654 15.75L82.6554 11.52H82.4754L81.1854 15.75ZM96.4919 0.359998C96.4719 0.419998 96.4619 0.489999 96.4619 0.569999C96.4619 0.629999 96.4619 0.689999 96.4619 0.749998C96.4619 1.37 96.6219 1.85 96.9419 2.19C97.2619 2.51 97.6519 2.67 98.1119 2.67C98.4119 2.67 98.6919 2.6 98.9519 2.46C99.2119 2.3 99.4419 2.11 99.6419 1.89C99.8419 1.65 100.012 1.4 100.152 1.14C100.292 0.859999 100.392 0.599998 100.452 0.359998H103.662C103.482 0.959998 103.242 1.55 102.942 2.13C102.642 2.71 102.262 3.23 101.802 3.69C101.342 4.13 100.792 4.49 100.152 4.77C99.5119 5.05 98.7719 5.19 97.9319 5.19C97.0319 5.19 96.2819 5.05 95.6819 4.77C95.1019 4.47 94.6419 4.09 94.3019 3.63C93.9819 3.17 93.7619 2.66 93.6419 2.1C93.5219 1.52 93.4919 0.939999 93.5519 0.359998H96.4919ZM97.0019 15.96L91.6019 27H87.6419L91.6619 6.12H95.6819L93.5219 17.25H93.5819L98.9519 6.12H103.002L98.9519 27H94.9019L97.0619 15.96H97.0019ZM115.641 16.11L119.451 6.12H123.471L116.241 22.35C115.741 23.47 115.251 24.35 114.771 24.99C114.291 25.63 113.801 26.12 113.301 26.46C112.821 26.8 112.331 27.02 111.831 27.12C111.331 27.24 110.811 27.31 110.271 27.33H109.071L109.731 24.03H110.091C110.631 24.03 111.061 23.91 111.381 23.67C111.721 23.43 112.031 23.08 112.311 22.62L112.731 21.78L111.231 6.15H115.011L115.491 16.11H115.641ZM121.444 27L120.664 30.96H117.394L118.804 23.49L120.124 23.16C120.484 22.92 120.784 22.67 121.024 22.41C121.264 22.13 121.464 21.83 121.624 21.51C121.804 21.17 121.954 20.8 122.074 20.4C122.194 19.98 122.314 19.51 122.434 18.99L125.374 6.12H135.244L131.914 23.1H133.474L131.974 30.96H128.674L129.454 27H121.444ZM126.064 18.69C125.864 19.59 125.624 20.44 125.344 21.24C125.084 22.02 124.774 22.64 124.414 23.1H128.014L130.594 10.02H128.044L126.064 18.69ZM142.725 22.92H139.665L138.255 27H133.905L141.915 6.12H146.895L146.835 27H142.575L142.725 22.92ZM142.035 15.75L140.985 19.08H142.875L143.115 15.75L143.505 11.52H143.325L142.035 15.75ZM154.594 6.12L153.124 13.71C153.064 14.05 153.044 14.33 153.064 14.55C153.084 14.75 153.134 14.91 153.214 15.03C153.314 15.15 153.434 15.23 153.574 15.27C153.734 15.31 153.904 15.33 154.084 15.33C154.264 15.33 154.454 15.3 154.654 15.24C154.874 15.16 155.094 15.07 155.314 14.97L157.054 6.12H161.044L156.994 27H153.004L154.564 18.9C153.784 19.08 153.084 19.17 152.464 19.17C150.984 19.17 149.944 18.81 149.344 18.09C148.764 17.35 148.644 16.14 148.984 14.46L150.604 6.12H154.594ZM167.057 16.11L170.867 6.12H174.887L167.657 22.35C167.157 23.47 166.667 24.35 166.187 24.99C165.707 25.63 165.217 26.12 164.717 26.46C164.237 26.8 163.747 27.02 163.247 27.12C162.747 27.24 162.227 27.31 161.687 27.33H160.487L161.147 24.03H161.507C162.047 24.03 162.477 23.91 162.797 23.67C163.137 23.43 163.447 23.08 163.727 22.62L164.147 21.78L162.647 6.15H166.427L166.907 16.11H167.057ZM187.939 15.96L182.539 27H178.579L182.599 6.12H186.619L184.459 17.25H184.519L189.889 6.12H193.939L189.889 27H185.839L187.999 15.96H187.939ZM205.858 27L209.128 10.11H206.968L203.698 27H199.618L203.668 6.12H213.958L209.908 27H205.858ZM221.317 9.99C220.977 9.99 220.687 10.09 220.447 10.29C220.207 10.49 220.037 10.82 219.937 11.28L217.957 21.54C217.937 21.64 217.917 21.73 217.897 21.81C217.897 21.87 217.897 21.94 217.897 22.02C217.897 22.76 218.247 23.13 218.947 23.13C219.287 23.13 219.577 23.04 219.817 22.86C220.057 22.66 220.227 22.32 220.327 21.84L222.307 11.64C222.347 11.54 222.367 11.45 222.367 11.37C222.367 11.27 222.367 11.17 222.367 11.07C222.367 10.69 222.267 10.42 222.067 10.26C221.867 10.08 221.617 9.99 221.317 9.99ZM221.557 5.94C223.057 5.94 224.257 6.32 225.157 7.08C226.057 7.84 226.507 8.94 226.507 10.38C226.507 10.9 226.447 11.44 226.327 12L224.467 21.9C224.167 23.54 223.567 24.83 222.667 25.77C221.767 26.71 220.437 27.18 218.677 27.18C217.097 27.18 215.887 26.77 215.047 25.95C214.227 25.13 213.817 24.04 213.817 22.68C213.817 22.46 213.827 22.23 213.847 21.99C213.887 21.75 213.927 21.51 213.967 21.27L215.887 11.19C216.067 10.29 216.297 9.52 216.577 8.88C216.877 8.22 217.247 7.67 217.687 7.23C218.147 6.79 218.687 6.47 219.307 6.27C219.947 6.05 220.697 5.94 221.557 5.94ZM241.216 6.12L237.166 27H233.206L236.506 10.02H234.406L232.846 17.91C232.566 19.35 232.246 20.62 231.886 21.72C231.526 22.8 231.086 23.73 230.566 24.51C230.066 25.29 229.466 25.94 228.766 26.46C228.066 26.98 227.236 27.39 226.276 27.69L225.016 24.66C225.736 24.3 226.326 23.9 226.786 23.46C227.266 23.02 227.666 22.53 227.986 21.99C228.306 21.45 228.566 20.84 228.766 20.16C228.986 19.48 229.176 18.72 229.336 17.88L231.616 6.12H241.216ZM247.154 16.11L250.964 6.12H254.984L247.754 22.35C247.254 23.47 246.764 24.35 246.284 24.99C245.804 25.63 245.314 26.12 244.814 26.46C244.334 26.8 243.844 27.02 243.344 27.12C242.844 27.24 242.324 27.31 241.784 27.33H240.584L241.244 24.03H241.604C242.144 24.03 242.574 23.91 242.894 23.67C243.234 23.43 243.544 23.08 243.824 22.62L244.244 21.78L242.744 6.15H246.524L247.004 16.11H247.154ZM260.122 6.12L258.652 13.71C258.592 14.05 258.572 14.33 258.592 14.55C258.612 14.75 258.662 14.91 258.742 15.03C258.842 15.15 258.962 15.23 259.102 15.27C259.262 15.31 259.432 15.33 259.612 15.33C259.792 15.33 259.982 15.3 260.182 15.24C260.402 15.16 260.622 15.07 260.842 14.97L262.582 6.12H266.572L262.522 27H258.532L260.092 18.9C259.312 19.08 258.612 19.17 257.992 19.17C256.512 19.17 255.472 18.81 254.872 18.09C254.292 17.35 254.172 16.14 254.512 14.46L256.132 6.12H260.122ZM274.834 15.96L269.434 27H265.474L269.494 6.12H273.514L271.354 17.25H271.414L276.784 6.12H280.834L276.784 27H272.734L274.894 15.96H274.834ZM4.47129 75L3.69129 78.96H0.421289L1.83129 71.49L3.15129 71.16C3.51129 70.92 3.81129 70.67 4.05129 70.41C4.29129 70.13 4.49129 69.83 4.65129 69.51C4.83129 69.17 4.98129 68.8 5.10129 68.4C5.22129 67.98 5.34129 67.51 5.46129 66.99L8.40129 54.12H18.2713L14.9413 71.1H16.5013L15.0013 78.96H11.7013L12.4813 75H4.47129ZM9.09129 66.69C8.89129 67.59 8.65129 68.44 8.37129 69.24C8.11129 70.02 7.80129 70.64 7.44129 71.1H11.0413L13.6213 58.02H11.0713L9.09129 66.69ZM26.5023 57.99C26.1623 57.99 25.8723 58.09 25.6323 58.29C25.3923 58.49 25.2223 58.82 25.1223 59.28L23.1423 69.54C23.1223 69.64 23.1023 69.73 23.0823 69.81C23.0823 69.87 23.0823 69.94 23.0823 70.02C23.0823 70.76 23.4323 71.13 24.1323 71.13C24.4723 71.13 24.7623 71.04 25.0023 70.86C25.2423 70.66 25.4123 70.32 25.5123 69.84L27.4923 59.64C27.5323 59.54 27.5523 59.45 27.5523 59.37C27.5523 59.27 27.5523 59.17 27.5523 59.07C27.5523 58.69 27.4523 58.42 27.2523 58.26C27.0523 58.08 26.8023 57.99 26.5023 57.99ZM26.7423 53.94C28.2423 53.94 29.4423 54.32 30.3423 55.08C31.2423 55.84 31.6923 56.94 31.6923 58.38C31.6923 58.9 31.6323 59.44 31.5123 60L29.6523 69.9C29.3523 71.54 28.7523 72.83 27.8523 73.77C26.9523 74.71 25.6223 75.18 23.8623 75.18C22.2823 75.18 21.0723 74.77 20.2323 73.95C19.4123 73.13 19.0023 72.04 19.0023 70.68C19.0023 70.46 19.0123 70.23 19.0323 69.99C19.0723 69.75 19.1123 69.51 19.1523 69.27L21.0723 59.19C21.2523 58.29 21.4823 57.52 21.7623 56.88C22.0623 56.22 22.4323 55.67 22.8723 55.23C23.3323 54.79 23.8723 54.47 24.4923 54.27C25.1323 54.05 25.8823 53.94 26.7423 53.94ZM92.0882 93.99C91.7482 93.99 91.4582 94.09 91.2182 94.29C90.9782 94.49 90.8082 94.82 90.7082 95.28L88.7282 105.54C88.7082 105.64 88.6882 105.73 88.6682 105.81C88.6682 105.87 88.6682 105.94 88.6682 106.02C88.6682 106.76 89.0182 107.13 89.7182 107.13C90.0582 107.13 90.3482 107.04 90.5882 106.86C90.8282 106.66 90.9982 106.32 91.0982 105.84L93.0782 95.64C93.1182 95.54 93.1382 95.45 93.1382 95.37C93.1382 95.27 93.1382 95.17 93.1382 95.07C93.1382 94.69 93.0382 94.42 92.8382 94.26C92.6382 94.08 92.3882 93.99 92.0882 93.99ZM92.3282 89.94C93.8282 89.94 95.0282 90.32 95.9282 91.08C96.8282 91.84 97.2782 92.94 97.2782 94.38C97.2782 94.9 97.2182 95.44 97.0982 96L95.2382 105.9C94.9382 107.54 94.3382 108.83 93.4382 109.77C92.5382 110.71 91.2082 111.18 89.4482 111.18C87.8682 111.18 86.6582 110.77 85.8182 109.95C84.9982 109.13 84.5882 108.04 84.5882 106.68C84.5882 106.46 84.5982 106.23 84.6182 105.99C84.6582 105.75 84.6982 105.51 84.7382 105.27L86.6582 95.19C86.8382 94.29 87.0682 93.52 87.3482 92.88C87.6482 92.22 88.0182 91.67 88.4582 91.23C88.9182 90.79 89.4582 90.47 90.0782 90.27C90.7182 90.05 91.4682 89.94 92.3282 89.94ZM106.318 94.02L103.018 111H98.9376L102.238 94.02H99.0276L99.7776 90.12H110.278L109.528 94.02H106.318ZM124.443 101.07C124.243 101.67 124.063 102.2 123.903 102.66C123.743 103.12 123.593 103.55 123.453 103.95C123.333 104.33 123.203 104.7 123.063 105.06C122.923 105.42 122.773 105.81 122.613 106.23L120.723 111H116.343L117.453 90.12H121.863L121.383 95.67C121.283 96.77 121.173 97.83 121.053 98.85C120.933 99.85 120.813 100.82 120.693 101.76H120.843L122.763 96.36L124.953 90.12H128.193L128.013 96.18C127.993 96.66 127.973 97.12 127.953 97.56C127.933 97.98 127.913 98.42 127.893 98.88C127.873 99.32 127.843 99.79 127.803 100.29C127.783 100.79 127.763 101.35 127.743 101.97H127.923L129.483 96.18L131.133 90.12H135.783L128.793 111H124.413L124.503 106.8L124.623 101.07H124.443ZM133.379 111L137.429 90.12H141.509L137.459 111H133.379ZM150.065 101.79L152.135 90.12H156.125L152.075 111H148.595L147.365 104.4L146.705 100.44H146.555L144.545 111H140.495L144.545 90.12H148.115L149.225 96.6C149.285 96.92 149.345 97.31 149.405 97.77C149.485 98.21 149.555 98.68 149.615 99.18C149.675 99.66 149.735 100.13 149.795 100.59C149.855 101.05 149.895 101.45 149.915 101.79H150.065ZM155.028 111L159.078 90.12H163.158L159.888 107.01H165.378L164.598 111H155.028ZM166.426 111L170.476 90.12H174.556L170.506 111H166.426ZM183.112 101.79L185.182 90.12H189.172L185.122 111H181.642L180.412 104.4L179.752 100.44H179.602L177.592 111H173.542L177.592 90.12H181.162L182.272 96.6C182.332 96.92 182.392 97.31 182.452 97.77C182.532 98.21 182.602 98.68 182.662 99.18C182.722 99.66 182.782 100.13 182.842 100.59C182.902 101.05 182.942 101.45 182.962 101.79H183.112ZM188.075 111L192.125 90.12H201.695L200.945 94.02H195.455L194.585 98.4H199.385L198.605 102.39H193.805L192.935 107.1H198.425L197.645 111H188.075Z" fill="white"/>
<path d="M44.905 75L49.793 49.761L44.858 53.098L46.221 46.095L51.861 42.288H57.501L51.156 75H44.905ZM71.9623 42.006C73.1843 42.006 74.2653 42.241 75.2053 42.711C76.1453 43.1497 76.913 43.7763 77.5083 44.591C78.1036 45.3743 78.4953 46.3143 78.6833 47.411C78.8713 48.4763 78.84 49.6513 78.5893 50.936L75.0643 68.091C74.6256 70.441 73.7013 72.227 72.2913 73.449C70.9126 74.671 69.1423 75.282 66.9803 75.282C65.7896 75.282 64.7243 75.0783 63.7843 74.671C62.8443 74.2637 62.0766 73.684 61.4813 72.932C60.886 72.1487 60.4786 71.2243 60.2593 70.159C60.04 69.0623 60.0556 67.856 60.3063 66.54L63.5493 49.338C63.988 46.988 64.9593 45.1863 66.4633 43.933C67.9673 42.6483 69.8003 42.006 71.9623 42.006ZM71.3043 48.257C70.803 48.257 70.4426 48.398 70.2233 48.68C70.004 48.9307 69.863 49.2597 69.8003 49.667L66.2283 67.621C66.1343 68.0597 66.2126 68.4043 66.4633 68.655C66.7453 68.9057 67.0586 69.031 67.4033 69.031C67.8106 69.031 68.1553 68.9213 68.4373 68.702C68.7193 68.4513 68.8916 68.138 68.9543 67.762C69.5496 64.7227 70.051 62.169 70.4583 60.101C70.8656 58.0017 71.1946 56.294 71.4453 54.978C71.7273 53.6307 71.9466 52.5967 72.1033 51.876C72.26 51.1553 72.3696 50.6383 72.4323 50.325C72.495 49.9803 72.5263 49.7923 72.5263 49.761C72.5576 49.6983 72.5733 49.6513 72.5733 49.62C72.636 49.1187 72.5106 48.774 72.1973 48.586C71.9153 48.3667 71.6176 48.257 71.3043 48.257ZM102.255 42.006C103.477 42.006 104.558 42.241 105.498 42.711C106.438 43.1497 107.206 43.7763 107.801 44.591C108.397 45.3743 108.788 46.3143 108.976 47.411C109.164 48.4763 109.133 49.6513 108.882 50.936L105.357 68.091C104.919 70.441 103.994 72.227 102.584 73.449C101.206 74.671 99.4353 75.282 97.2733 75.282C96.0826 75.282 95.0173 75.0783 94.0773 74.671C93.1373 74.2637 92.3696 73.684 91.7743 72.932C91.1789 72.1487 90.7716 71.2243 90.5523 70.159C90.3329 69.0623 90.3486 67.856 90.5993 66.54L93.8423 49.338C94.2809 46.988 95.2523 45.1863 96.7563 43.933C98.2603 42.6483 100.093 42.006 102.255 42.006ZM101.597 48.257C101.096 48.257 100.736 48.398 100.516 48.68C100.297 48.9307 100.156 49.2597 100.093 49.667L96.5213 67.621C96.4273 68.0597 96.5056 68.4043 96.7563 68.655C97.0383 68.9057 97.3516 69.031 97.6963 69.031C98.1036 69.031 98.4483 68.9213 98.7303 68.702C99.0123 68.4513 99.1846 68.138 99.2473 67.762C99.8426 64.7227 100.344 62.169 100.751 60.101C101.159 58.0017 101.488 56.294 101.738 54.978C102.02 53.6307 102.24 52.5967 102.396 51.876C102.553 51.1553 102.663 50.6383 102.725 50.325C102.788 49.9803 102.819 49.7923 102.819 49.761C102.851 49.6983 102.866 49.6513 102.866 49.62C102.929 49.1187 102.804 48.774 102.49 48.586C102.208 48.3667 101.911 48.257 101.597 48.257ZM122.451 42.006C123.673 42.006 124.754 42.241 125.694 42.711C126.634 43.1497 127.401 43.7763 127.997 44.591C128.592 45.3743 128.984 46.3143 129.172 47.411C129.36 48.4763 129.328 49.6513 129.078 50.936L125.553 68.091C125.114 70.441 124.19 72.227 122.78 73.449C121.401 74.671 119.631 75.282 117.469 75.282C116.278 75.282 115.213 75.0783 114.273 74.671C113.333 74.2637 112.565 73.684 111.97 72.932C111.374 72.1487 110.967 71.2243 110.748 70.159C110.528 69.0623 110.544 67.856 110.795 66.54L114.038 49.338C114.476 46.988 115.448 45.1863 116.952 43.933C118.456 42.6483 120.289 42.006 122.451 42.006ZM121.793 48.257C121.291 48.257 120.931 48.398 120.712 48.68C120.492 48.9307 120.351 49.2597 120.289 49.667L116.717 67.621C116.623 68.0597 116.701 68.4043 116.952 68.655C117.234 68.9057 117.547 69.031 117.892 69.031C118.299 69.031 118.644 68.9213 118.926 68.702C119.208 68.4513 119.38 68.138 119.443 67.762C120.038 64.7227 120.539 62.169 120.947 60.101C121.354 58.0017 121.683 56.294 121.934 54.978C122.216 53.6307 122.435 52.5967 122.592 51.876C122.748 51.1553 122.858 50.6383 122.921 50.325C122.983 49.9803 123.015 49.7923 123.015 49.761C123.046 49.6983 123.062 49.6513 123.062 49.62C123.124 49.1187 122.999 48.774 122.686 48.586C122.404 48.3667 122.106 48.257 121.793 48.257ZM142.646 42.006C143.868 42.006 144.949 42.241 145.889 42.711C146.829 43.1497 147.597 43.7763 148.192 44.591C148.787 45.3743 149.179 46.3143 149.367 47.411C149.555 48.4763 149.524 49.6513 149.273 50.936L145.748 68.091C145.309 70.441 144.385 72.227 142.975 73.449C141.596 74.671 139.826 75.282 137.664 75.282C136.473 75.282 135.408 75.0783 134.468 74.671C133.528 74.2637 132.76 73.684 132.165 72.932C131.57 72.1487 131.162 71.2243 130.943 70.159C130.724 69.0623 130.739 67.856 130.99 66.54L134.233 49.338C134.672 46.988 135.643 45.1863 137.147 43.933C138.651 42.6483 140.484 42.006 142.646 42.006ZM141.988 48.257C141.487 48.257 141.126 48.398 140.907 48.68C140.688 48.9307 140.547 49.2597 140.484 49.667L136.912 67.621C136.818 68.0597 136.896 68.4043 137.147 68.655C137.429 68.9057 137.742 69.031 138.087 69.031C138.494 69.031 138.839 68.9213 139.121 68.702C139.403 68.4513 139.575 68.138 139.638 67.762C140.233 64.7227 140.735 62.169 141.142 60.101C141.549 58.0017 141.878 56.294 142.129 54.978C142.411 53.6307 142.63 52.5967 142.787 51.876C142.944 51.1553 143.053 50.6383 143.116 50.325C143.179 49.9803 143.21 49.7923 143.21 49.761C143.241 49.6983 143.257 49.6513 143.257 49.62C143.32 49.1187 143.194 48.774 142.881 48.586C142.599 48.3667 142.301 48.257 141.988 48.257ZM172.986 42.288C174.177 42.288 175.258 42.4133 176.229 42.664C177.2 42.9147 178.031 43.3377 178.72 43.933C179.409 44.497 179.942 45.2803 180.318 46.283C180.694 47.2543 180.882 48.4607 180.882 49.902C180.882 54.1633 179.864 57.422 177.827 59.678C175.79 61.9027 173.033 63.015 169.555 63.015H168.051L165.748 75H159.356L165.701 42.288H172.986ZM170.918 48.398L169.273 56.858H170.354C170.761 56.858 171.216 56.7953 171.717 56.67C172.218 56.5133 172.688 56.247 173.127 55.871C173.566 55.4637 173.926 54.8997 174.208 54.179C174.49 53.4583 174.631 52.5183 174.631 51.359C174.631 50.2623 174.38 49.4947 173.879 49.056C173.409 48.6173 172.751 48.398 171.905 48.398H170.918ZM190.363 57.939L196.332 42.288H202.63L191.303 67.715C190.52 69.4697 189.752 70.8483 189 71.851C188.248 72.8537 187.481 73.6213 186.697 74.154C185.945 74.6867 185.178 75.0313 184.394 75.188C183.611 75.376 182.796 75.4857 181.95 75.517H180.07L181.104 70.347H181.668C182.514 70.347 183.188 70.159 183.689 69.783C184.222 69.407 184.708 68.8587 185.146 68.138L185.804 66.822L183.454 42.335H189.376L190.128 57.939H190.363ZM198.553 75L204.898 42.288H219.092L217.917 48.398H210.115L208.94 54.273H210.491C213.06 54.273 214.94 54.837 216.131 55.965C217.322 57.093 217.917 58.7693 217.917 60.994C217.917 62.9053 217.651 64.7227 217.118 66.446C216.617 68.138 215.896 69.6263 214.956 70.911C214.016 72.1643 212.872 73.167 211.525 73.919C210.209 74.6397 208.721 75 207.06 75H198.553ZM207.436 68.89C208.47 68.89 209.41 68.4043 210.256 67.433C211.102 66.4617 211.525 64.9577 211.525 62.921C211.525 62.357 211.447 61.9183 211.29 61.605C211.133 61.2603 210.93 61.0097 210.679 60.853C210.428 60.665 210.131 60.5553 209.786 60.524C209.473 60.4613 209.144 60.43 208.799 60.43H207.765L206.12 68.89H207.436ZM241.922 42.288L235.577 75H229.373L234.543 48.398H231.253L228.809 60.759C228.37 63.015 227.869 65.0047 227.305 66.728C226.741 68.42 226.051 69.877 225.237 71.099C224.453 72.321 223.513 73.3393 222.417 74.154C221.32 74.9687 220.02 75.611 218.516 76.081L216.542 71.334C217.67 70.77 218.594 70.1433 219.315 69.454C220.067 68.7647 220.693 67.997 221.195 67.151C221.696 66.305 222.103 65.3493 222.417 64.284C222.761 63.2187 223.059 62.028 223.31 60.712L226.882 42.288H241.922ZM240.321 75L246.666 42.288H261.659L260.484 48.398H251.883L250.52 55.26H258.04L256.818 61.511H249.298L247.935 68.89H256.536L255.314 75H240.321ZM272.448 33.264C272.416 33.358 272.401 33.4677 272.401 33.593C272.401 33.687 272.401 33.781 272.401 33.875C272.401 34.8463 272.651 35.5983 273.153 36.131C273.654 36.6323 274.265 36.883 274.986 36.883C275.456 36.883 275.894 36.7733 276.302 36.554C276.709 36.3033 277.069 36.0057 277.383 35.661C277.696 35.285 277.962 34.8933 278.182 34.486C278.401 34.0473 278.558 33.64 278.652 33.264H283.681C283.399 34.204 283.023 35.1283 282.553 36.037C282.083 36.9457 281.487 37.7603 280.767 38.481C280.046 39.1703 279.184 39.7343 278.182 40.173C277.179 40.6117 276.02 40.831 274.704 40.831C273.294 40.831 272.119 40.6117 271.179 40.173C270.27 39.703 269.549 39.1077 269.017 38.387C268.515 37.6663 268.171 36.8673 267.983 35.99C267.795 35.0813 267.748 34.1727 267.842 33.264H272.448ZM273.247 57.704L264.787 75H258.583L264.881 42.288H271.179L267.795 59.725H267.889L276.302 42.288H282.647L276.302 75H269.957L273.341 57.704H273.247Z" fill="#FF6A13"/>
</svg>
