<svg width="260" height="131" viewBox="0 0 260 131" fill="none" xmlns="http://www.w3.org/2000/svg">
<path d="M18.4774 6.398L17.2084 12.884H18.0074C19.1354 12.884 19.9971 12.4923 20.5924 11.709C21.2191 10.9257 21.5324 9.86033 21.5324 8.513C21.5324 7.63567 21.3288 7.07167 20.9214 6.821C20.5141 6.539 19.9188 6.398 19.1354 6.398H18.4774ZM16.0334 18.806L14.3884 26.984H15.5164C16.1431 26.984 16.6914 26.843 17.1614 26.561C17.6314 26.2477 18.0231 25.8403 18.3364 25.339C18.6811 24.8063 18.9318 24.211 19.0884 23.553C19.2451 22.895 19.3234 22.19 19.3234 21.438C19.3234 20.498 19.0884 19.8243 18.6184 19.417C18.1798 19.0097 17.6628 18.806 17.0674 18.806H16.0334ZM22.7544 15.892C23.8198 16.268 24.5404 16.879 24.9164 17.725C25.3238 18.571 25.5274 19.5423 25.5274 20.639C25.5274 22.4877 25.2924 24.1797 24.8224 25.715C24.3524 27.219 23.6788 28.5193 22.8014 29.616C21.9241 30.6813 20.8588 31.5117 19.6054 32.107C18.3521 32.7023 16.9421 33 15.3754 33H6.91544L13.2604 0.287998H20.1694C25.2454 0.287998 27.7834 2.57533 27.7834 7.15C27.7834 9.56267 27.3448 11.4583 26.4674 12.837C25.6214 14.2157 24.3994 15.1557 22.8014 15.657L22.7544 15.892ZM46.973 33L53.318 0.287998H59.71L53.365 33H46.973ZM27.891 33L34.236 0.287998H40.628L38.278 12.273H39.03C40.3774 12.273 41.5524 12.461 42.555 12.837C43.589 13.1817 44.4507 13.683 45.14 14.341C45.8294 14.9677 46.3464 15.7197 46.691 16.597C47.067 17.443 47.255 18.3673 47.255 19.37C47.255 21.438 46.9887 23.318 46.456 25.01C45.9234 26.702 45.1714 28.1433 44.2 29.334C43.2287 30.4933 42.0694 31.402 40.722 32.06C39.3747 32.6867 37.8864 33 36.257 33H27.891ZM36.633 26.89C37.1344 26.89 37.6357 26.7647 38.137 26.514C38.6697 26.232 39.124 25.856 39.5 25.386C39.9074 24.8847 40.2364 24.2737 40.487 23.553C40.7377 22.801 40.863 21.955 40.863 21.015C40.863 19.887 40.581 19.182 40.017 18.9C39.4844 18.5867 38.8734 18.43 38.184 18.43H37.103L35.458 26.89H36.633ZM79.7519 6.398L78.4829 12.884H79.2819C80.4099 12.884 81.2715 12.4923 81.8669 11.709C82.4935 10.9257 82.8069 9.86033 82.8069 8.513C82.8069 7.63567 82.6032 7.07167 82.1959 6.821C81.7885 6.539 81.1932 6.398 80.4099 6.398H79.7519ZM77.3079 18.806L75.6629 26.984H76.7909C77.4175 26.984 77.9659 26.843 78.4359 26.561C78.9059 26.2477 79.2975 25.8403 79.6109 25.339C79.9555 24.8063 80.2062 24.211 80.3629 23.553C80.5195 22.895 80.5979 22.19 80.5979 21.438C80.5979 20.498 80.3629 19.8243 79.8929 19.417C79.4542 19.0097 78.9372 18.806 78.3419 18.806H77.3079ZM84.0289 15.892C85.0942 16.268 85.8149 16.879 86.1909 17.725C86.5982 18.571 86.8019 19.5423 86.8019 20.639C86.8019 22.4877 86.5669 24.1797 86.0969 25.715C85.6269 27.219 84.9532 28.5193 84.0759 29.616C83.1985 30.6813 82.1332 31.5117 80.8799 32.107C79.6265 32.7023 78.2165 33 76.6499 33H68.1899L74.5349 0.287998H81.4439C86.5199 0.287998 89.0579 2.57533 89.0579 7.15C89.0579 9.56267 88.6192 11.4583 87.7419 12.837C86.8959 14.2157 85.6739 15.1557 84.0759 15.657L84.0289 15.892ZM108.247 33L114.592 0.287998H120.984L114.639 33H108.247ZM89.1654 33L95.5104 0.287998H101.902L99.5524 12.273H100.304C101.652 12.273 102.827 12.461 103.829 12.837C104.863 13.1817 105.725 13.683 106.414 14.341C107.104 14.9677 107.621 15.7197 107.965 16.597C108.341 17.443 108.529 18.3673 108.529 19.37C108.529 21.438 108.263 23.318 107.73 25.01C107.198 26.702 106.446 28.1433 105.474 29.334C104.503 30.4933 103.344 31.402 101.996 32.06C100.649 32.6867 99.1608 33 97.5314 33H89.1654ZM97.9074 26.89C98.4088 26.89 98.9101 26.7647 99.4114 26.514C99.9441 26.232 100.398 25.856 100.774 25.386C101.182 24.8847 101.511 24.2737 101.761 23.553C102.012 22.801 102.137 21.955 102.137 21.015C102.137 19.887 101.855 19.182 101.291 18.9C100.759 18.5867 100.148 18.43 99.4584 18.43H98.3774L96.7324 26.89H97.9074ZM133.796 15.704L125.336 33H119.132L125.43 0.287998H131.728L128.344 17.725H128.438L136.851 0.287998H143.196L136.851 33H130.506L133.89 15.704H133.796ZM153.557 6.398L148.387 33H141.995L148.34 0.287998H163.333L162.158 6.398H153.557ZM174.122 0.287998C175.312 0.287998 176.393 0.413332 177.365 0.663999C178.336 0.914666 179.166 1.33767 179.856 1.933C180.545 2.497 181.078 3.28033 181.454 4.283C181.83 5.25433 182.018 6.46066 182.018 7.902C182.018 12.1633 180.999 15.422 178.963 17.678C176.926 19.9027 174.169 21.015 170.691 21.015H169.187L166.884 33H160.492L166.837 0.287998H174.122ZM172.054 6.398L170.409 14.858H171.49C171.897 14.858 172.351 14.7953 172.853 14.67C173.354 14.5133 173.824 14.247 174.263 13.871C174.701 13.4637 175.062 12.8997 175.344 12.179C175.626 11.4583 175.767 10.5183 175.767 9.359C175.767 8.26233 175.516 7.49466 175.015 7.056C174.545 6.61733 173.887 6.398 173.041 6.398H172.054ZM190.557 26.608H185.763L183.554 33H176.739L189.288 0.287998H197.09L196.996 33H190.322L190.557 26.608ZM189.476 15.375L187.831 20.592H190.792L191.168 15.375L191.779 8.748H191.497L189.476 15.375ZM223.092 0.287998L216.747 33H210.543L215.713 6.398H212.423L209.979 18.759C209.54 21.015 209.039 23.0047 208.475 24.728C207.911 26.42 207.221 27.877 206.407 29.099C205.623 30.321 204.683 31.3393 203.587 32.154C202.49 32.9687 201.19 33.611 199.686 34.081L197.712 29.334C198.84 28.77 199.764 28.1433 200.485 27.454C201.237 26.7647 201.863 25.997 202.365 25.151C202.866 24.305 203.273 23.3493 203.587 22.284C203.931 21.2187 204.229 20.028 204.48 18.712L208.052 0.287998H223.092ZM235.92 15.704L227.46 33H221.256L227.554 0.287998H233.852L230.468 17.725H230.562L238.975 0.287998H245.32L238.975 33H232.63L236.014 15.704H235.92Z" fill="white"/>
<path d="M75.6476 55.996C74.8329 56.0273 74.0966 56.2937 73.4386 56.795C72.7806 57.265 72.3576 57.97 72.1696 58.91L70.1486 69.25C69.9606 70.19 70.1173 70.895 70.6186 71.365C71.1199 71.835 71.7466 72.0857 72.4986 72.117L75.6476 55.996ZM84.3426 58.91C84.5306 57.876 84.3426 57.1397 83.7786 56.701C83.2459 56.2623 82.6506 56.0273 81.9926 55.996L78.8436 72.117C79.7209 72.1797 80.4729 71.9447 81.0996 71.412C81.7576 70.8793 82.1649 70.1587 82.3216 69.25L84.3426 58.91ZM88.5726 69.109C88.0399 71.8977 86.8806 74.1067 85.0946 75.736C83.3086 77.3653 80.8333 78.2113 77.6686 78.274L77.1516 81H70.8066L71.3706 78.086C70.2426 78.0547 69.1616 77.804 68.1276 77.334C67.1249 76.864 66.2789 76.206 65.5896 75.36C64.9003 74.514 64.4146 73.4957 64.1326 72.305C63.8506 71.083 63.8663 69.6887 64.1796 68.122L65.9656 58.816C66.4983 55.996 67.7203 53.8027 69.6316 52.236C71.5743 50.638 73.9869 49.8233 76.8696 49.792L77.1516 48.288H83.4966L83.2146 49.792C84.5306 49.792 85.6899 50.0113 86.6926 50.45C87.7266 50.8887 88.5569 51.5153 89.1836 52.33C89.8416 53.1133 90.2803 54.069 90.4996 55.197C90.7503 56.2937 90.7346 57.547 90.4526 58.957L88.5726 69.109ZM104.425 48.288C105.615 48.288 106.696 48.4133 107.668 48.664C108.639 48.9147 109.469 49.3377 110.159 49.933C110.848 50.497 111.381 51.2803 111.757 52.283C112.133 53.2543 112.321 54.4607 112.321 55.902C112.321 60.1633 111.302 63.422 109.266 65.678C107.229 67.9027 104.472 69.015 100.994 69.015H99.4898L97.1868 81H90.7948L97.1398 48.288H104.425ZM102.357 54.398L100.712 62.858H101.793C102.2 62.858 102.654 62.7953 103.156 62.67C103.657 62.5133 104.127 62.247 104.566 61.871C105.004 61.4637 105.365 60.8997 105.647 60.179C105.929 59.4583 106.07 58.5183 106.07 57.359C106.07 56.2623 105.819 55.4947 105.318 55.056C104.848 54.6173 104.19 54.398 103.344 54.398H102.357ZM125.327 63.704L116.867 81H110.663L116.961 48.288H123.259L119.875 65.725H119.969L128.382 48.288H134.727L128.382 81H122.037L125.421 63.704H125.327ZM133.526 81L139.871 48.288H154.065L152.89 54.398H145.088L143.913 60.273H145.464C148.034 60.273 149.914 60.837 151.104 61.965C152.295 63.093 152.89 64.7693 152.89 66.994C152.89 68.9053 152.624 70.7227 152.091 72.446C151.59 74.138 150.869 75.6263 149.929 76.911C148.989 78.1643 147.846 79.167 146.498 79.919C145.182 80.6397 143.694 81 142.033 81H133.526ZM142.409 74.89C143.443 74.89 144.383 74.4043 145.229 73.433C146.075 72.4617 146.498 70.9577 146.498 68.921C146.498 68.357 146.42 67.9183 146.263 67.605C146.107 67.2603 145.903 67.0097 145.652 66.853C145.402 66.665 145.104 66.5553 144.759 66.524C144.446 66.4613 144.117 66.43 143.772 66.43H142.738L141.093 74.89H142.409ZM153.63 81L159.975 48.288H174.968L173.793 54.398H165.192L163.829 61.26H171.349L170.127 67.511H162.607L161.244 74.89H169.845L168.623 81H153.63ZM186.509 54.398L181.339 81H174.947L180.117 54.398H175.088L176.263 48.288H192.713L191.538 54.398H186.509ZM0.871579 129L6.17558 101.613L0.820579 105.234L2.29958 97.635L8.41958 93.504H14.5396L7.65458 129H0.871579ZM30.2316 93.198C31.5576 93.198 32.7306 93.453 33.7506 93.963C34.7706 94.439 35.6036 95.119 36.2496 96.003C36.8956 96.853 37.3206 97.873 37.5246 99.063C37.7286 100.219 37.6946 101.494 37.4226 102.888L33.5976 121.503C33.1216 124.053 32.1186 125.991 30.5886 127.317C29.0926 128.643 27.1716 129.306 24.8256 129.306C23.5336 129.306 22.3776 129.085 21.3576 128.643C20.3376 128.201 19.5046 127.572 18.8586 126.756C18.2126 125.906 17.7706 124.903 17.5326 123.747C17.2946 122.557 17.3116 121.248 17.5836 119.82L21.1026 101.154C21.5786 98.604 22.6326 96.649 24.2646 95.289C25.8966 93.895 27.8856 93.198 30.2316 93.198ZM29.5176 99.981C28.9736 99.981 28.5826 100.134 28.3446 100.44C28.1066 100.712 27.9536 101.069 27.8856 101.511L24.0096 120.993C23.9076 121.469 23.9926 121.843 24.2646 122.115C24.5706 122.387 24.9106 122.523 25.2846 122.523C25.7266 122.523 26.1006 122.404 26.4066 122.166C26.7126 121.894 26.8996 121.554 26.9676 121.146C27.6136 117.848 28.1576 115.077 28.5996 112.833C29.0416 110.555 29.3986 108.702 29.6706 107.274C29.9766 105.812 30.2146 104.69 30.3846 103.908C30.5546 103.126 30.6736 102.565 30.7416 102.225C30.8096 101.851 30.8436 101.647 30.8436 101.613C30.8776 101.545 30.8946 101.494 30.8946 101.46C30.9626 100.916 30.8266 100.542 30.4866 100.338C30.1806 100.1 29.8576 99.981 29.5176 99.981ZM63.1027 93.198C64.4287 93.198 65.6017 93.453 66.6217 93.963C67.6417 94.439 68.4747 95.119 69.1207 96.003C69.7667 96.853 70.1917 97.873 70.3957 99.063C70.5997 100.219 70.5657 101.494 70.2937 102.888L66.4687 121.503C65.9927 124.053 64.9897 125.991 63.4597 127.317C61.9637 128.643 60.0427 129.306 57.6967 129.306C56.4047 129.306 55.2487 129.085 54.2287 128.643C53.2087 128.201 52.3757 127.572 51.7297 126.756C51.0837 125.906 50.6417 124.903 50.4037 123.747C50.1657 122.557 50.1827 121.248 50.4547 119.82L53.9737 101.154C54.4497 98.604 55.5037 96.649 57.1357 95.289C58.7677 93.895 60.7567 93.198 63.1027 93.198ZM62.3887 99.981C61.8447 99.981 61.4537 100.134 61.2157 100.44C60.9777 100.712 60.8247 101.069 60.7567 101.511L56.8807 120.993C56.7787 121.469 56.8637 121.843 57.1357 122.115C57.4417 122.387 57.7817 122.523 58.1557 122.523C58.5977 122.523 58.9717 122.404 59.2777 122.166C59.5837 121.894 59.7707 121.554 59.8387 121.146C60.4847 117.848 61.0287 115.077 61.4707 112.833C61.9127 110.555 62.2697 108.702 62.5417 107.274C62.8477 105.812 63.0857 104.69 63.2557 103.908C63.4257 103.126 63.5447 102.565 63.6127 102.225C63.6807 101.851 63.7147 101.647 63.7147 101.613C63.7487 101.545 63.7657 101.494 63.7657 101.46C63.8337 100.916 63.6977 100.542 63.3577 100.338C63.0517 100.1 62.7287 99.981 62.3887 99.981ZM85.0168 93.198C86.3428 93.198 87.5158 93.453 88.5358 93.963C89.5558 94.439 90.3888 95.119 91.0348 96.003C91.6808 96.853 92.1058 97.873 92.3098 99.063C92.5138 100.219 92.4798 101.494 92.2078 102.888L88.3828 121.503C87.9068 124.053 86.9038 125.991 85.3738 127.317C83.8778 128.643 81.9568 129.306 79.6108 129.306C78.3188 129.306 77.1628 129.085 76.1428 128.643C75.1228 128.201 74.2898 127.572 73.6438 126.756C72.9978 125.906 72.5558 124.903 72.3178 123.747C72.0798 122.557 72.0968 121.248 72.3688 119.82L75.8878 101.154C76.3638 98.604 77.4178 96.649 79.0498 95.289C80.6818 93.895 82.6708 93.198 85.0168 93.198ZM84.3028 99.981C83.7588 99.981 83.3678 100.134 83.1298 100.44C82.8918 100.712 82.7388 101.069 82.6708 101.511L78.7948 120.993C78.6928 121.469 78.7778 121.843 79.0498 122.115C79.3558 122.387 79.6958 122.523 80.0698 122.523C80.5118 122.523 80.8858 122.404 81.1918 122.166C81.4978 121.894 81.6848 121.554 81.7528 121.146C82.3988 117.848 82.9428 115.077 83.3848 112.833C83.8268 110.555 84.1838 108.702 84.4558 107.274C84.7618 105.812 84.9998 104.69 85.1698 103.908C85.3398 103.126 85.4588 102.565 85.5268 102.225C85.5948 101.851 85.6288 101.647 85.6288 101.613C85.6628 101.545 85.6798 101.494 85.6798 101.46C85.7478 100.916 85.6118 100.542 85.2718 100.338C84.9658 100.1 84.6428 99.981 84.3028 99.981ZM106.931 93.198C108.257 93.198 109.43 93.453 110.45 93.963C111.47 94.439 112.303 95.119 112.949 96.003C113.595 96.853 114.02 97.873 114.224 99.063C114.428 100.219 114.394 101.494 114.122 102.888L110.297 121.503C109.821 124.053 108.818 125.991 107.288 127.317C105.792 128.643 103.871 129.306 101.525 129.306C100.233 129.306 99.0769 129.085 98.0569 128.643C97.0369 128.201 96.2039 127.572 95.5579 126.756C94.9119 125.906 94.4699 124.903 94.2319 123.747C93.9939 122.557 94.0109 121.248 94.2829 119.82L97.8019 101.154C98.2779 98.604 99.3319 96.649 100.964 95.289C102.596 93.895 104.585 93.198 106.931 93.198ZM106.217 99.981C105.673 99.981 105.282 100.134 105.044 100.44C104.806 100.712 104.653 101.069 104.585 101.511L100.709 120.993C100.607 121.469 100.692 121.843 100.964 122.115C101.27 122.387 101.61 122.523 101.984 122.523C102.426 122.523 102.8 122.404 103.106 122.166C103.412 121.894 103.599 121.554 103.667 121.146C104.313 117.848 104.857 115.077 105.299 112.833C105.741 110.555 106.098 108.702 106.37 107.274C106.676 105.812 106.914 104.69 107.084 103.908C107.254 103.126 107.373 102.565 107.441 102.225C107.509 101.851 107.543 101.647 107.543 101.613C107.577 101.545 107.594 101.494 107.594 101.46C107.662 100.916 107.526 100.542 107.186 100.338C106.88 100.1 106.557 99.981 106.217 99.981ZM139.853 93.504C141.145 93.504 142.318 93.64 143.372 93.912C144.426 94.184 145.327 94.643 146.075 95.289C146.823 95.901 147.401 96.751 147.809 97.839C148.217 98.893 148.421 100.202 148.421 101.766C148.421 106.39 147.316 109.926 145.106 112.374C142.896 114.788 139.904 115.995 136.13 115.995H134.498L131.999 129H125.063L131.948 93.504H139.853ZM137.609 100.134L135.824 109.314H136.997C137.439 109.314 137.932 109.246 138.476 109.11C139.02 108.94 139.53 108.651 140.006 108.243C140.482 107.801 140.873 107.189 141.179 106.407C141.485 105.625 141.638 104.605 141.638 103.347C141.638 102.157 141.366 101.324 140.822 100.848C140.312 100.372 139.598 100.134 138.68 100.134H137.609ZM158.709 110.487L165.186 93.504H172.02L159.729 121.095C158.879 122.999 158.046 124.495 157.23 125.583C156.414 126.671 155.581 127.504 154.731 128.082C153.915 128.66 153.082 129.034 152.232 129.204C151.382 129.408 150.498 129.527 149.58 129.561H147.54L148.662 123.951H149.274C150.192 123.951 150.923 123.747 151.467 123.339C152.045 122.931 152.572 122.336 153.048 121.554L153.762 120.126L151.212 93.555H157.638L158.454 110.487H158.709ZM167.596 129L174.481 93.504H189.883L188.608 100.134H180.142L178.867 106.509H180.55C183.338 106.509 185.378 107.121 186.67 108.345C187.962 109.569 188.608 111.388 188.608 113.802C188.608 115.876 188.319 117.848 187.741 119.718C187.197 121.554 186.415 123.169 185.395 124.563C184.375 125.923 183.134 127.011 181.672 127.827C180.244 128.609 178.629 129 176.827 129H167.596ZM177.235 122.37C178.357 122.37 179.377 121.843 180.295 120.789C181.213 119.735 181.672 118.103 181.672 115.893C181.672 115.281 181.587 114.805 181.417 114.465C181.247 114.091 181.026 113.819 180.754 113.649C180.482 113.445 180.159 113.326 179.785 113.292C179.445 113.224 179.088 113.19 178.714 113.19H177.592L175.807 122.37H177.235ZM214.656 93.504L207.771 129H201.039L206.649 100.134H203.079L200.427 113.547C199.951 115.995 199.407 118.154 198.795 120.024C198.183 121.86 197.435 123.441 196.551 124.767C195.701 126.093 194.681 127.198 193.491 128.082C192.301 128.966 190.89 129.663 189.258 130.173L187.116 125.022C188.34 124.41 189.343 123.73 190.125 122.982C190.941 122.234 191.621 121.401 192.165 120.483C192.709 119.565 193.151 118.528 193.491 117.372C193.865 116.216 194.188 114.924 194.46 113.496L198.336 93.504H214.656ZM212.918 129L219.803 93.504H236.072L234.797 100.134H225.464L223.985 107.58H232.145L230.819 114.363H222.659L221.18 122.37H230.513L229.187 129H212.918ZM247.78 83.712C247.746 83.814 247.729 83.933 247.729 84.069C247.729 84.171 247.729 84.273 247.729 84.375C247.729 85.429 248.001 86.245 248.545 86.823C249.089 87.367 249.752 87.639 250.534 87.639C251.044 87.639 251.52 87.52 251.962 87.282C252.404 87.01 252.795 86.687 253.135 86.313C253.475 85.905 253.764 85.48 254.002 85.038C254.24 84.562 254.41 84.12 254.512 83.712H259.969C259.663 84.732 259.255 85.735 258.745 86.721C258.235 87.707 257.589 88.591 256.807 89.373C256.025 90.121 255.09 90.733 254.002 91.209C252.914 91.685 251.656 91.923 250.228 91.923C248.698 91.923 247.423 91.685 246.403 91.209C245.417 90.699 244.635 90.053 244.057 89.271C243.513 88.489 243.139 87.622 242.935 86.67C242.731 85.684 242.68 84.698 242.782 83.712H247.78ZM248.647 110.232L239.467 129H232.735L239.569 93.504H246.403L242.731 112.425H242.833L251.962 93.504H258.847L251.962 129H245.077L248.749 110.232H248.647Z" fill="#FF6A13"/>
</svg>
